<svg xmlns="http://www.w3.org/2000/svg" xmlns:xlink="http://www.w3.org/1999/xlink" width="240" height="40" viewBox="0 0 240 40"><defs><style>.a{fill:#fff;}.b{clip-path:url(#a);}.c{fill:#f7b600;}.d{fill:#575757;}</style><clipPath id="a"><rect class="a" width="240" height="40" transform="translate(520 176)"/></clipPath></defs><g class="b" transform="translate(-520 -176)"><g transform="translate(-400.067 -225.161)"><path class="c" d="M35.371-21.805h-17.4a18.846,18.846,0,0,1-6.226-.994,13.906,13.906,0,0,1-4.927-2.9,13.481,13.481,0,0,1-3.244-4.624A15.487,15.487,0,0,1,2.4-36.53a14.632,14.632,0,0,1,1.2-5.961,14.158,14.158,0,0,1,3.265-4.664,14.711,14.711,0,0,1,4.867-3.021,16.589,16.589,0,0,1,6-1.075,16.324,16.324,0,0,1,6,1.094A14.983,14.983,0,0,1,28.6-47.119a14.215,14.215,0,0,1,3.265,4.643,14.489,14.489,0,0,1,1.2,5.942,13.015,13.015,0,0,1-.353,3,11.471,11.471,0,0,1-1.034,2.758,9,9,0,0,1-1.784,2.331,9.02,9.02,0,0,1-2.555,1.684v.081h8.03ZM8.97-36.53a8.824,8.824,0,0,0,.69,3.487,8.824,8.824,0,0,0,1.887,2.824,8.945,8.945,0,0,0,2.778,1.887,8.432,8.432,0,0,0,3.406.69,8.432,8.432,0,0,0,3.406-.69,8.946,8.946,0,0,0,2.778-1.887A8.824,8.824,0,0,0,25.8-33.043a8.824,8.824,0,0,0,.69-3.487,8.824,8.824,0,0,0-.69-3.487,8.824,8.824,0,0,0-1.887-2.824,8.945,8.945,0,0,0-2.778-1.887,8.432,8.432,0,0,0-3.406-.69,8.432,8.432,0,0,0-3.406.69,8.945,8.945,0,0,0-2.778,1.887A8.824,8.824,0,0,0,9.66-40.017,8.824,8.824,0,0,0,8.97-36.53Zm53.735,3.653a13.848,13.848,0,0,1-.771,4.7,10.352,10.352,0,0,1-2.294,3.731,10.5,10.5,0,0,1-3.792,2.471,14.238,14.238,0,0,1-5.232.893,14.36,14.36,0,0,1-5.271-.893,10.5,10.5,0,0,1-3.792-2.471,10.352,10.352,0,0,1-2.294-3.731,13.848,13.848,0,0,1-.771-4.7V-50.525h6.339v17.4a6.992,6.992,0,0,0,.425,2.471,5.91,5.91,0,0,0,1.2,1.968,5.432,5.432,0,0,0,1.846,1.3,5.794,5.794,0,0,0,2.331.466,5.647,5.647,0,0,0,2.312-.466,5.485,5.485,0,0,0,1.825-1.3,5.91,5.91,0,0,0,1.2-1.968,6.992,6.992,0,0,0,.425-2.471v-17.4h6.327Zm6.083-17.647H88.3v5.84H75.115v5.352H87.567v5.84H75.115v5.84h13.91v5.84H68.788Zm25.55,0h6.327v22.873h11.72v5.84H94.338Z" transform="translate(917.67 457.933)"/><path class="d" d="M17.685-44.4a4.505,4.505,0,0,0-2.089-1.44,7.486,7.486,0,0,0-2.494-.466,6.53,6.53,0,0,0-1.412.162,5.441,5.441,0,0,0-1.378.506,3,3,0,0,0-1.059.912,2.31,2.31,0,0,0-.406,1.378,2.294,2.294,0,0,0,.974,1.987,9.217,9.217,0,0,0,2.453,1.175q1.481.487,3.177.974a13.117,13.117,0,0,1,3.177,1.378,7.537,7.537,0,0,1,2.453,2.393,7.294,7.294,0,0,1,.974,4.015,9.231,9.231,0,0,1-.877,4.179,8.471,8.471,0,0,1-2.412,2.961,10.269,10.269,0,0,1-3.529,1.744A15.5,15.5,0,0,1,11-21.975a15.375,15.375,0,0,1-5.192-.852,13.008,13.008,0,0,1-4.467-2.762l4.5-4.941a6.572,6.572,0,0,0,2.451,2,7,7,0,0,0,3.062.706A6.927,6.927,0,0,0,12.918-28a5.086,5.086,0,0,0,1.412-.547,3.062,3.062,0,0,0,1.024-.928,2.326,2.326,0,0,0,.385-1.338,2.428,2.428,0,0,0-.994-2.049,9.157,9.157,0,0,0-2.494-1.278q-1.5-.529-3.244-1.059a14.57,14.57,0,0,1-3.244-1.412A7.82,7.82,0,0,1,3.27-38.959a6.731,6.731,0,0,1-.994-3.852,8.626,8.626,0,0,1,.912-4.059,8.8,8.8,0,0,1,2.434-2.921,10.578,10.578,0,0,1,3.508-1.765,14.36,14.36,0,0,1,4.1-.588,16.105,16.105,0,0,1,4.7.69,10.85,10.85,0,0,1,4.1,2.312ZM44.648-26.118a9.706,9.706,0,0,1-3.69,2.88,11.054,11.054,0,0,1-4.624,1.015,12.422,12.422,0,0,1-4.272-.718,10.3,10.3,0,0,1-3.487-2.089A9.8,9.8,0,0,1,26.244-28.3a10.325,10.325,0,0,1-.852-4.258,10.325,10.325,0,0,1,.852-4.258,9.8,9.8,0,0,1,2.331-3.265,10.3,10.3,0,0,1,3.487-2.1,12.422,12.422,0,0,1,4.278-.731,9.733,9.733,0,0,1,3.833.731,7.98,7.98,0,0,1,2.921,2.089,9.512,9.512,0,0,1,1.846,3.265,13.158,13.158,0,0,1,.649,4.258v1.906H31.471a4.814,4.814,0,0,0,1.588,2.778,4.474,4.474,0,0,0,3,1.034,4.569,4.569,0,0,0,2.534-.669A6.815,6.815,0,0,0,40.4-29.24ZM39.5-34.8a3.53,3.53,0,0,0-1.015-2.637,3.605,3.605,0,0,0-2.718-1.094,4.569,4.569,0,0,0-1.784.325,4.472,4.472,0,0,0-1.318.831A3.644,3.644,0,0,0,31.81-36.2a3.872,3.872,0,0,0-.353,1.4Zm22.142,9.611h-.081a5.721,5.721,0,0,1-2.7,2.271,9.27,9.27,0,0,1-3.549.69,9.15,9.15,0,0,1-2.656-.385,6.706,6.706,0,0,1-2.25-1.156,5.582,5.582,0,0,1-1.541-1.906,5.824,5.824,0,0,1-.568-2.637,6.044,6.044,0,0,1,.628-2.88,5.626,5.626,0,0,1,1.7-1.941,8.458,8.458,0,0,1,2.453-1.2,17.911,17.911,0,0,1,2.859-.628A27.31,27.31,0,0,1,58.9-35.2q1.481-.041,2.737-.041a3.164,3.164,0,0,0-1.156-2.575,4.168,4.168,0,0,0-2.737-.953,5.954,5.954,0,0,0-2.737.628A7.477,7.477,0,0,0,52.8-36.414l-3.244-3.325A11.164,11.164,0,0,1,53.53-42.11a14.2,14.2,0,0,1,4.707-.792,12.3,12.3,0,0,1,4.4.669,6.4,6.4,0,0,1,2.758,1.968,7.588,7.588,0,0,1,1.44,3.177,20.892,20.892,0,0,1,.406,4.359v10.017H61.646Zm-1.5-6.164q-.69,0-1.724.06a8.734,8.734,0,0,0-1.987.353,4.423,4.423,0,0,0-1.622.852,1.962,1.962,0,0,0-.669,1.588,1.74,1.74,0,0,0,.934,1.622,3.9,3.9,0,0,0,1.941.529,6.1,6.1,0,0,0,1.724-.244,5.141,5.141,0,0,0,1.481-.69,3.334,3.334,0,0,0,1.034-1.135,3.272,3.272,0,0,0,.385-1.622v-1.3Zm10.91-11.072h6.083v3.162h.081A7.477,7.477,0,0,1,79.525-42a5.843,5.843,0,0,1,3.365-.912q.529,0,1.059.041a5.222,5.222,0,0,1,.974.162v5.555a9.189,9.189,0,0,0-1.278-.3,8.271,8.271,0,0,0-1.318-.1,6.464,6.464,0,0,0-2.755.5A3.662,3.662,0,0,0,78.011-35.7a5.164,5.164,0,0,0-.706,2.089,20.34,20.34,0,0,0-.162,2.677V-22.7H71.056Zm29.118,6.367a3.408,3.408,0,0,0-1.257-1.075,3.7,3.7,0,0,0-1.744-.425,4.65,4.65,0,0,0-3.59,1.378A5.1,5.1,0,0,0,92.3-32.568a5.1,5.1,0,0,0,1.278,3.609,4.65,4.65,0,0,0,3.59,1.378,3.281,3.281,0,0,0,1.744-.446,5.317,5.317,0,0,0,1.257-1.059l4.015,4.218a7.765,7.765,0,0,1-3.353,2.049,12.572,12.572,0,0,1-3.671.588,12.422,12.422,0,0,1-4.264-.709,10.3,10.3,0,0,1-3.487-2.089A9.8,9.8,0,0,1,87.076-28.3a10.325,10.325,0,0,1-.852-4.258,10.325,10.325,0,0,1,.852-4.258,9.8,9.8,0,0,1,2.331-3.265,10.3,10.3,0,0,1,3.487-2.1,12.422,12.422,0,0,1,4.278-.731,12.572,12.572,0,0,1,3.671.588,7.765,7.765,0,0,1,3.353,2.049Zm12.288-17.317v13.627h.081a3.655,3.655,0,0,1,.69-1.135A5.393,5.393,0,0,1,114.4-41.9a6.4,6.4,0,0,1,1.622-.731,6.936,6.936,0,0,1,2.028-.284,8.379,8.379,0,0,1,3.731.706,5.4,5.4,0,0,1,2.209,1.968,7.955,7.955,0,0,1,1.075,2.961,22.484,22.484,0,0,1,.284,3.69v10.869h-6.074v-9.651q0-.852-.06-1.765a5.566,5.566,0,0,0-.365-1.684,2.9,2.9,0,0,0-.934-1.244,2.9,2.9,0,0,0-1.805-.487,3.755,3.755,0,0,0-1.906.425,2.9,2.9,0,0,0-1.115,1.135,4.641,4.641,0,0,0-.507,1.6,13.806,13.806,0,0,0-.122,1.865v9.814h-6.083V-53.366Z" transform="translate(1034.717 458.835)"/></g></g></svg>